<?xml version="1.0" encoding="UTF-8"?>
<svg version="1.1" xmlns="http://www.w3.org/2000/svg" width="370" height="302">
<path d="M0 0 C6.6 0 13.2 0 20 0 C20 0.66 20 1.32 20 2 C22.97 1.505 22.97 1.505 26 1 C26 1.66 26 2.32 26 3 C26.56074219 2.79890625 27.12148437 2.5978125 27.69921875 2.390625 C30.63970533 1.89139128 32.09355346 2.56822166 34.8125 3.75 C36.11767578 4.306875 36.11767578 4.306875 37.44921875 4.875 C38.29097656 5.24625 39.13273437 5.6175 40 6 C41.37473477 6.58395813 42.74969502 7.16738608 44.125 7.75 C45.07375 8.1625 46.0225 8.575 47 9 C47 9.66 47 10.32 47 11 C48.65 11.33 50.3 11.66 52 12 C52.495 13.485 52.495 13.485 53 15 C54.32796291 15.35412344 55.66216607 15.68521554 57 16 C58.02019573 16.9793879 59.02149805 17.97895449 60 19 C61.485 19.495 61.485 19.495 63 20 C63 20.66 63 21.32 63 22 C63.99 22.33 64.98 22.66 66 23 C66.69658363 24.65438613 67.36096883 26.32254318 68 28 C69.41666667 29.58333333 69.41666667 29.58333333 71 31 C75.87427347 37.30947622 80.21263218 43.10579214 82 51 C82.5878125 52.6396875 82.5878125 52.6396875 83.1875 54.3125 C84 57 84 57 83 59 C83.66 59 84.32 59 85 59 C84.67 60.32 84.34 61.64 84 63 C84.66 63 85.32 63 86 63 C86.02911003 66.89581756 86.04683587 70.791607 86.0625 74.6875 C86.07087891 75.79029297 86.07925781 76.89308594 86.08789062 78.02929688 C86.09111328 79.09599609 86.09433594 80.16269531 86.09765625 81.26171875 C86.10289307 82.24100342 86.10812988 83.22028809 86.11352539 84.22924805 C86.00308543 86.92469572 85.60534166 89.37545639 85 92 C84.34 92 83.68 92 83 92 C83 92.66 83 93.32 83 94 C83.66 94.33 84.32 94.66 85 95 C84.2265625 96.175625 84.2265625 96.175625 83.4375 97.375 C82.963125 98.24125 82.48875 99.1075 82 100 C82.33 100.66 82.66 101.32 83 102 C81.02 102.99 81.02 102.99 79 104 C79 104.66 79 105.32 79 106 C79.66 106.33 80.32 106.66 81 107 C80.34 107.66 79.68 108.32 79 109 C79 109.66 79 110.32 79 111 C77.625 112.625 77.625 112.625 76 114 C75.34 114 74.68 114 74 114 C74.33 114.99 74.66 115.98 75 117 C74.01 117.66 73.02 118.32 72 119 C70.23544494 121.03602507 69.11079471 122.39062911 68.625 125.0625 C67.67616909 128.00387583 65.65472177 128.52515457 63 130 C60.97945196 131.64169528 58.97956942 133.30911778 57 135 C56.113125 135.70125 55.22625 136.4025 54.3125 137.125 C52.02969549 138.89800539 52.02969549 138.89800539 50.3125 140.75 C49 142 49 142 47 142 C46.608125 142.474375 46.21625 142.94875 45.8125 143.4375 C43.13387641 145.74665826 40.43923968 145.67554343 37 146 C37 146.66 37 147.32 37 148 C36.34 148 35.68 148 35 148 C35 147.34 35 146.68 35 146 C34.34 146 33.68 146 33 146 C33 146.99 33 147.98 33 149 C32.34 149 31.68 149 31 149 C30.67 149.33 30.34 149.66 30 150 C25.33127601 151.19432474 22.44750286 150.80017973 18 149 C18 149.66 18 150.32 18 151 C18.66 151.33 19.32 151.66 20 152 C18.35 152 16.7 152 15 152 C15 151.34 15 150.68 15 150 C14.34 150 13.68 150 13 150 C12.67 150.66 12.34 151.32 12 152 C11.4225 151.814375 10.845 151.62875 10.25 151.4375 C7.79307475 150.95976454 6.35602466 151.24270636 4 152 C3.67 151.01 3.34 150.02 3 149 C0.69 149.33 -1.62 149.66 -4 150 C-4 149.34 -4 148.68 -4 148 C-4.66 148 -5.32 148 -6 148 C-6 148.66 -6 149.32 -6 150 C-6.99 149.67 -7.98 149.34 -9 149 C-8.67 148.34 -8.34 147.68 -8 147 C-9.98 147.99 -9.98 147.99 -12 149 C-12.33 148.34 -12.66 147.68 -13 147 C-13.66 147.33 -14.32 147.66 -15 148 C-15.33 147.34 -15.66 146.68 -16 146 C-16.78375 145.7525 -17.5675 145.505 -18.375 145.25 C-24.68157898 143.07531759 -31.4715296 140.02854688 -36 135 C-36.556875 134.443125 -37.11375 133.88625 -37.6875 133.3125 C-38.120625 132.879375 -38.55375 132.44625 -39 132 C-39.66 132.33 -40.32 132.66 -41 133 C-41 132.34 -41 131.68 -41 131 C-42.32 130.34 -43.64 129.68 -45 129 C-45 128.01 -45 127.02 -45 126 C-46.43750191 124.31201173 -46.43750191 124.31201173 -48 123 C-49.485 123.495 -49.485 123.495 -51 124 C-51.99 121.03 -51.99 121.03 -53 118 C-53.66 118 -54.32 118 -55 118 C-57.05269725 115.04411596 -58.21910025 112.47855343 -59 109 C-59.165 108.27941406 -59.33 107.55882812 -59.5 106.81640625 C-59.84217346 105.27395247 -60.18190057 103.73095452 -60.51953125 102.1875 C-60.89541498 100.47615943 -61.28821578 98.7685326 -61.6875 97.0625 C-62 95 -62 95 -61 93 C-61.66 93 -62.32 93 -63 93 C-62.67 91.68 -62.34 90.36 -62 89 C-62.66 89 -63.32 89 -64 89 C-63.67 87.02 -63.34 85.04 -63 83 C-63.66 83 -64.32 83 -65 83 C-65 78.05 -65 73.1 -65 68 C-64.34 68 -63.68 68 -63 68 C-63.495 65.525 -63.495 65.525 -64 63 C-63.34 63 -62.68 63 -62 63 C-62.33 61.68 -62.66 60.36 -63 59 C-62.34 59 -61.68 59 -61 59 C-61.28230469 58.13761719 -61.28230469 58.13761719 -61.5703125 57.2578125 C-63.37021268 47.80015521 -53.46648989 34.86862475 -49 27 C-48.34 27 -47.68 27 -47 27 C-46.71125 26.4225 -46.4225 25.845 -46.125 25.25 C-45.75375 24.5075 -45.3825 23.765 -45 23 C-44.71125 22.278125 -44.4225 21.55625 -44.125 20.8125 C-43 19 -43 19 -41.1875 18.5625 C-38.70267002 18.12979453 -38.70267002 18.12979453 -36.625 15.5 C-33.65123705 12.66784481 -32.02086746 12.28052564 -28 12 C-28 11.01 -28 10.02 -28 9 C-27.13375 8.896875 -26.2675 8.79375 -25.375 8.6875 C-21.92003269 8.13584299 -21.92003269 8.13584299 -18.75 6.375 C-17.8425 5.92125 -16.935 5.4675 -16 5 C-15.34 5.33 -14.68 5.66 -14 6 C-13.67 5.34 -13.34 4.68 -13 4 C-10 2 -10 2 -7 2 C-6.67 1.67 -6.34 1.34 -6 1 C-4.00041636 0.95919217 -1.99954746 0.95745644 0 1 C0 0.67 0 0.34 0 0 Z M-35 15 C-34 17 -34 17 -34 17 Z " fill="#926F22" transform="translate(169,83)"/>
<path d="M0 0 C1.60875 -0.00386719 1.60875 -0.00386719 3.25 -0.0078125 C6 0.125 6 0.125 8 1.125 C7.343621 5.61025648 6.29925791 9.79414029 5 14.125 C5.66 14.125 6.32 14.125 7 14.125 C7.226875 13.403125 7.45375 12.68125 7.6875 11.9375 C9.45687414 8.14598399 10.46582184 6.50377376 14 4.125 C19.76459279 3.3164235 26.56012754 2.62507453 31.6875 5.875 C36.81155015 10.86056231 36.81155015 10.86056231 37.36328125 14.5625 C37.33814453 15.8309375 37.33814453 15.8309375 37.3125 17.125 C37.30863281 17.970625 37.30476563 18.81625 37.30078125 19.6875 C36.98576274 22.24037729 36.28396996 23.91513935 35 26.125 C34.360625 25.795 33.72125 25.465 33.0625 25.125 C28.9831924 23.79298119 25.25243622 23.45111666 21 24.125 C18.2299003 26.09009909 18.2299003 26.09009909 16 28.125 C14.2265625 27.765625 14.2265625 27.765625 12 27.125 C3.83434632 26.31380748 3.83434632 26.31380748 -3.625 29.0625 C-7.56021814 31.46735553 -10.34491358 31.70703978 -14.86328125 31.94921875 C-17.05182398 31.99575621 -17.05182398 31.99575621 -19 33.125 C-17.9275 33.269375 -16.855 33.41375 -15.75 33.5625 C-12 34.125 -12 34.125 -10.02734375 34.78125 C-7.3355182 35.23766743 -6.19005822 34.47372002 -3.8125 33.1875 C0.82529623 30.97574569 4.90588448 30.28734429 10 31.125 C11.34013497 31.77788627 12.67452141 32.44284993 14 33.125 C17.05865675 32.75425373 18.35168306 31.89054463 21 30.125 C24.625 29.9375 24.625 29.9375 28 30.125 C29.80932729 31.93432729 29.36638298 34.7310037 29.53515625 37.1796875 C29.62216797 38.43523437 29.70917969 39.69078125 29.79882812 40.984375 C29.84209229 41.64501953 29.88535645 42.30566406 29.92993164 42.98632812 C30.05969879 44.95745054 30.19869347 46.92795856 30.33789062 48.8984375 C30.83947948 56.32044403 31.13079223 63.68631275 31 71.125 C20.99717899 74.23454271 10.93007269 76.96632826 0.75 79.4375 C-0.33273193 79.70385254 -1.41546387 79.97020508 -2.53100586 80.24462891 C-4.07026733 80.61273682 -4.07026733 80.61273682 -5.640625 80.98828125 C-6.55360352 81.20782471 -7.46658203 81.42736816 -8.40722656 81.65356445 C-10.99885376 82.12479158 -13.37232682 82.21122608 -16 82.125 C-16.59282207 80.44859472 -17.18537453 78.77209378 -17.77685547 77.09521484 C-18.30792104 75.59443477 -18.84218743 74.09478408 -19.37939453 72.59619141 C-20.89458453 68.34966063 -22.33702457 64.09472986 -23.67578125 59.7890625 C-27.03414516 47.96384977 -27.03414516 47.96384977 -35.30078125 39.34375 C-37.42965469 37.81683388 -38.11149434 36.57745696 -39 34.125 C-39.40268369 28.53905451 -38.01518152 23.97997262 -34.52734375 19.6328125 C-30.81525603 15.96819393 -27.31029738 14.125 -22 14.125 C-21.67 16.105 -21.34 18.085 -21 20.125 C-20.731875 19.25617188 -20.46375 18.38734375 -20.1875 17.4921875 C-16.61018515 6.97205766 -11.72224625 -0.02817848 0 0 Z " fill="#FDF2AD" transform="translate(176,107.875)"/>
<path d="M0 0 C6.6 0 13.2 0 20 0 C20 0.66 20 1.32 20 2 C22.97 1.505 22.97 1.505 26 1 C26 1.66 26 2.32 26 3 C26.56074219 2.79890625 27.12148437 2.5978125 27.69921875 2.390625 C30.63970533 1.89139128 32.09355346 2.56822166 34.8125 3.75 C36.11767578 4.306875 36.11767578 4.306875 37.44921875 4.875 C38.29097656 5.24625 39.13273437 5.6175 40 6 C41.37473477 6.58395813 42.74969502 7.16738608 44.125 7.75 C45.07375 8.1625 46.0225 8.575 47 9 C47 9.66 47 10.32 47 11 C48.65 11.33 50.3 11.66 52 12 C52.495 13.485 52.495 13.485 53 15 C54.32796291 15.35412344 55.66216607 15.68521554 57 16 C58.02019573 16.9793879 59.02149805 17.97895449 60 19 C61.485 19.495 61.485 19.495 63 20 C63 20.66 63 21.32 63 22 C63.99 22.33 64.98 22.66 66 23 C66.69658363 24.65438613 67.36096883 26.32254318 68 28 C69.41666667 29.58333333 69.41666667 29.58333333 71 31 C75.87427347 37.30947622 80.21263218 43.10579214 82 51 C82.5878125 52.6396875 82.5878125 52.6396875 83.1875 54.3125 C84 57 84 57 83 59 C83.66 59 84.32 59 85 59 C84.67 60.32 84.34 61.64 84 63 C84.66 63 85.32 63 86 63 C86.02911003 66.89581756 86.04683587 70.791607 86.0625 74.6875 C86.07087891 75.79029297 86.07925781 76.89308594 86.08789062 78.02929688 C86.09111328 79.09599609 86.09433594 80.16269531 86.09765625 81.26171875 C86.10289307 82.24100342 86.10812988 83.22028809 86.11352539 84.22924805 C86.00308543 86.92469572 85.60534166 89.37545639 85 92 C84.34 92 83.68 92 83 92 C83 92.66 83 93.32 83 94 C83.66 94.33 84.32 94.66 85 95 C84.2265625 96.175625 84.2265625 96.175625 83.4375 97.375 C82.963125 98.24125 82.48875 99.1075 82 100 C82.33 100.66 82.66 101.32 83 102 C81.02 102.99 81.02 102.99 79 104 C79 104.66 79 105.32 79 106 C79.66 106.33 80.32 106.66 81 107 C80.34 107.66 79.68 108.32 79 109 C79 109.66 79 110.32 79 111 C77.625 112.625 77.625 112.625 76 114 C75.34 114 74.68 114 74 114 C74.33 114.99 74.66 115.98 75 117 C74.01 117.66 73.02 118.32 72 119 C70.23544494 121.03602507 69.11079471 122.39062911 68.625 125.0625 C67.67616909 128.00387583 65.65472177 128.52515457 63 130 C60.97945196 131.64169528 58.97956942 133.30911778 57 135 C56.113125 135.70125 55.22625 136.4025 54.3125 137.125 C52.02969549 138.89800539 52.02969549 138.89800539 50.3125 140.75 C49 142 49 142 47 142 C46.608125 142.474375 46.21625 142.94875 45.8125 143.4375 C43.13387641 145.74665826 40.43923968 145.67554343 37 146 C37 146.66 37 147.32 37 148 C36.34 148 35.68 148 35 148 C35 147.34 35 146.68 35 146 C34.34 146 33.68 146 33 146 C33 146.99 33 147.98 33 149 C32.34 149 31.68 149 31 149 C30.67 149.33 30.34 149.66 30 150 C25.33127601 151.19432474 22.44750286 150.80017973 18 149 C18 149.66 18 150.32 18 151 C18.66 151.33 19.32 151.66 20 152 C18.35 152 16.7 152 15 152 C15 151.34 15 150.68 15 150 C14.34 150 13.68 150 13 150 C12.67 150.66 12.34 151.32 12 152 C11.4225 151.814375 10.845 151.62875 10.25 151.4375 C7.79307475 150.95976454 6.35602466 151.24270636 4 152 C3.67 151.01 3.34 150.02 3 149 C0.69 149.33 -1.62 149.66 -4 150 C-4 149.34 -4 148.68 -4 148 C-4.66 148 -5.32 148 -6 148 C-6 148.66 -6 149.32 -6 150 C-6.99 149.67 -7.98 149.34 -9 149 C-8.67 148.34 -8.34 147.68 -8 147 C-9.98 147.99 -9.98 147.99 -12 149 C-12.33 148.34 -12.66 147.68 -13 147 C-13.66 147.33 -14.32 147.66 -15 148 C-15.33 147.34 -15.66 146.68 -16 146 C-16.78375 145.7525 -17.5675 145.505 -18.375 145.25 C-24.68157898 143.07531759 -31.4715296 140.02854688 -36 135 C-36.556875 134.443125 -37.11375 133.88625 -37.6875 133.3125 C-38.120625 132.879375 -38.55375 132.44625 -39 132 C-39.66 132.33 -40.32 132.66 -41 133 C-41 132.34 -41 131.68 -41 131 C-42.32 130.34 -43.64 129.68 -45 129 C-45 128.01 -45 127.02 -45 126 C-46.43750191 124.31201173 -46.43750191 124.31201173 -48 123 C-49.485 123.495 -49.485 123.495 -51 124 C-51.99 121.03 -51.99 121.03 -53 118 C-53.66 118 -54.32 118 -55 118 C-57.05269725 115.04411596 -58.21910025 112.47855343 -59 109 C-59.165 108.27941406 -59.33 107.55882812 -59.5 106.81640625 C-59.84217346 105.27395247 -60.18190057 103.73095452 -60.51953125 102.1875 C-60.89541498 100.47615943 -61.28821578 98.7685326 -61.6875 97.0625 C-62 95 -62 95 -61 93 C-61.66 93 -62.32 93 -63 93 C-62.67 91.68 -62.34 90.36 -62 89 C-62.66 89 -63.32 89 -64 89 C-63.67 87.02 -63.34 85.04 -63 83 C-63.66 83 -64.32 83 -65 83 C-65 78.05 -65 73.1 -65 68 C-64.34 68 -63.68 68 -63 68 C-63.495 65.525 -63.495 65.525 -64 63 C-63.34 63 -62.68 63 -62 63 C-62.33 61.68 -62.66 60.36 -63 59 C-62.34 59 -61.68 59 -61 59 C-61.28230469 58.13761719 -61.28230469 58.13761719 -61.5703125 57.2578125 C-63.37021268 47.80015521 -53.46648989 34.86862475 -49 27 C-48.34 27 -47.68 27 -47 27 C-46.71125 26.4225 -46.4225 25.845 -46.125 25.25 C-45.75375 24.5075 -45.3825 23.765 -45 23 C-44.71125 22.278125 -44.4225 21.55625 -44.125 20.8125 C-43 19 -43 19 -41.1875 18.5625 C-38.70267002 18.12979453 -38.70267002 18.12979453 -36.625 15.5 C-33.65123705 12.66784481 -32.02086746 12.28052564 -28 12 C-28 11.01 -28 10.02 -28 9 C-27.13375 8.896875 -26.2675 8.79375 -25.375 8.6875 C-21.92003269 8.13584299 -21.92003269 8.13584299 -18.75 6.375 C-17.8425 5.92125 -16.935 5.4675 -16 5 C-15.34 5.33 -14.68 5.66 -14 6 C-13.67 5.34 -13.34 4.68 -13 4 C-10 2 -10 2 -7 2 C-6.67 1.67 -6.34 1.34 -6 1 C-4.00041636 0.95919217 -1.99954746 0.95745644 0 1 C0 0.67 0 0.34 0 0 Z M-36 21 C-36.82628906 21.63550781 -37.65257812 22.27101563 -38.50390625 22.92578125 C-51.13238937 33.41987286 -58.92556335 49.9279628 -61 66 C-62.51326189 89.65522582 -56.89867904 108.83380444 -41 127 C-26.11051079 141.10458004 -9.17292569 147.38785075 11.0625 147.1875 C12.30322266 147.18685547 13.54394531 147.18621094 14.82226562 147.18554688 C24.88926429 147.13707016 32.23959853 146.36243216 41.125 141.5625 C41.9595874 141.11221436 42.7941748 140.66192871 43.65405273 140.19799805 C57.28918817 132.66869541 66.31623122 124.62260288 74 111 C74.52335938 110.07316406 75.04671875 109.14632812 75.5859375 108.19140625 C83.98710197 91.46545153 85.84064887 71.72051341 80.19482422 53.91772461 C76.63561724 43.58434685 71.164773 35.21051897 64 27 C63.48050781 26.38511719 62.96101563 25.77023438 62.42578125 25.13671875 C50.17894799 11.71764453 32.11281116 4.57217641 14.265625 3.7109375 C-5.12593624 3.17676147 -21.10975037 8.30036363 -36 21 Z M-35 15 C-34 17 -34 17 -34 17 Z " fill="#644D36" transform="translate(169,83)"/>
<path d="M0 0 C2.43466782 1.89608979 4.73654954 3.86608134 7.015625 5.9453125 C7.6240625 6.46222656 8.2325 6.97914062 8.859375 7.51171875 C20.69906041 18.24816075 29.4689874 36.10101788 30.3515625 52.06640625 C30.79384788 72.91631577 24.75426321 91.65430523 11.74609375 108.1328125 C-1.55345283 121.83191627 -18.95766143 129.94902501 -37.84594727 130.23779297 C-58.88514826 130.3516009 -73.52673326 126.54615605 -89.984375 112.9453125 C-90.79132813 112.35234375 -91.59828125 111.759375 -92.4296875 111.1484375 C-95.46352858 108.53209749 -97.70867808 105.58461738 -99.984375 102.3203125 C-100.42152832 101.69568115 -100.85868164 101.0710498 -101.30908203 100.42749023 C-112.89673477 83.59533247 -116.83594697 64.63428496 -113.2890625 44.46875 C-110.66590137 32.02004763 -105.13049803 21.63510724 -96.984375 11.9453125 C-96.34757812 11.11644531 -95.71078125 10.28757812 -95.0546875 9.43359375 C-71.64730584 -18.69942912 -28.62286149 -19.70631564 0 0 Z M-96.171875 15.58984375 C-99.17618881 19.49415674 -101.62225641 23.63003914 -103.984375 27.9453125 C-104.36464844 28.58984375 -104.74492188 29.234375 -105.13671875 29.8984375 C-112.66087681 43.41352896 -112.98891477 60.98227276 -109.421875 75.7578125 C-103.6096411 94.63741144 -92.38486356 110.52505669 -74.72875977 119.90673828 C-68.66519377 122.97252182 -62.58069471 125.33946688 -55.984375 126.9453125 C-55.04742798 127.20115112 -55.04742798 127.20115112 -54.09155273 127.4621582 C-37.28495748 131.31573855 -19.29105712 125.59457145 -4.85498047 117.15625 C0.38110861 113.7666648 4.70740896 109.41661558 9.015625 104.9453125 C9.60601562 104.38585937 10.19640625 103.82640625 10.8046875 103.25 C14.49375976 99.4820171 16.80095462 94.90262562 19.203125 90.2578125 C19.53666992 89.62270752 19.87021484 88.98760254 20.21386719 88.33325195 C25.09200475 78.46276062 26.56008604 68.36376051 26.453125 57.4453125 C26.44067749 55.79740723 26.44067749 55.79740723 26.42797852 54.11621094 C26.26695891 46.41706728 25.52208387 39.89598541 22.015625 32.9453125 C21.51804688 31.87539062 21.02046875 30.80546875 20.5078125 29.703125 C16.69566641 22.02564008 12.09437031 15.95384128 6.015625 9.9453125 C4.87480469 8.77162109 4.87480469 8.77162109 3.7109375 7.57421875 C-9.2029207 -4.97974504 -26.80675319 -10.76981782 -44.61938477 -10.52539062 C-65.09165023 -9.64334962 -82.91274937 0.05848893 -96.171875 15.58984375 Z " fill="#F5F5F2" transform="translate(221.984375,100.0546875)"/>
<path d="M0 0 C2.09976896 0.50436386 2.09976896 0.50436386 4.13671875 0.4375 C4.13671875 1.0975 4.13671875 1.7575 4.13671875 2.4375 C5.27109375 2.355 6.40546875 2.2725 7.57421875 2.1875 C11.88738887 2.1875 14.86501579 3.41055177 18.6953125 5.2890625 C22.2829716 6.97669734 26.00883964 8.21677814 29.75390625 9.5078125 C32.13671875 10.4375 32.13671875 10.4375 35.13671875 12.4375 C35.63171875 13.9225 35.63171875 13.9225 36.13671875 15.4375 C37.12671875 16.0975 38.11671875 16.7575 39.13671875 17.4375 C37.48671875 18.0975 35.83671875 18.7575 34.13671875 19.4375 C34.13671875 18.7775 34.13671875 18.1175 34.13671875 17.4375 C32.81671875 17.4375 31.49671875 17.4375 30.13671875 17.4375 C30.13671875 16.7775 30.13671875 16.1175 30.13671875 15.4375 C28.81671875 15.4375 27.49671875 15.4375 26.13671875 15.4375 C26.13671875 14.7775 26.13671875 14.1175 26.13671875 13.4375 C24.81671875 13.4375 23.49671875 13.4375 22.13671875 13.4375 C21.64171875 12.4475 21.64171875 12.4475 21.13671875 11.4375 C19.81671875 11.7675 18.49671875 12.0975 17.13671875 12.4375 C16.14671875 10.9525 16.14671875 10.9525 15.13671875 9.4375 C12.78304162 8.7496764 12.78304162 8.7496764 10.13671875 8.4375 C9.35296875 8.2725 8.56921875 8.1075 7.76171875 7.9375 C-3.34602172 5.82173991 -13.83229999 5.83379091 -24.86328125 8.4375 C-26.86138787 8.78200114 -28.8605054 9.12127223 -30.86328125 9.4375 C-30.86328125 10.0975 -30.86328125 10.7575 -30.86328125 11.4375 C-32.25546875 11.994375 -32.25546875 11.994375 -33.67578125 12.5625 C-47.45600815 18.47231276 -60.39479224 26.73942795 -69.86328125 38.4375 C-72.11328125 40.875 -72.11328125 40.875 -73.86328125 42.4375 C-74.52328125 42.4375 -75.18328125 42.4375 -75.86328125 42.4375 C-76.19328125 43.4275 -76.52328125 44.4175 -76.86328125 45.4375 C-77.52328125 44.4475 -78.18328125 43.4575 -78.86328125 42.4375 C-78.20328125 42.4375 -77.54328125 42.4375 -76.86328125 42.4375 C-76.86328125 41.1175 -76.86328125 39.7975 -76.86328125 38.4375 C-76.20328125 38.4375 -75.54328125 38.4375 -74.86328125 38.4375 C-74.86328125 37.7775 -74.86328125 37.1175 -74.86328125 36.4375 C-73.21898296 34.74876121 -71.54943907 33.08444485 -69.86328125 31.4375 C-69.30640625 30.695 -68.74953125 29.9525 -68.17578125 29.1875 C-66.86328125 27.4375 -66.86328125 27.4375 -64.86328125 26.4375 C-64.86328125 25.7775 -64.86328125 25.1175 -64.86328125 24.4375 C-64.20328125 23.7775 -63.54328125 23.1175 -62.86328125 22.4375 C-62.47011719 21.92574219 -62.07695313 21.41398437 -61.671875 20.88671875 C-57.75450838 15.85329327 -53.58049656 13.15908349 -47.86328125 10.4375 C-46.70892578 9.880625 -46.70892578 9.880625 -45.53125 9.3125 C-40.19241037 6.83862542 -34.82943407 4.4375 -28.86328125 4.4375 C-28.86328125 3.7775 -28.86328125 3.1175 -28.86328125 2.4375 C-28.02023438 2.23253906 -27.1771875 2.02757813 -26.30859375 1.81640625 C-25.21289062 1.54699219 -24.1171875 1.27757813 -22.98828125 1 C-21.35246094 0.59974609 -21.35246094 0.59974609 -19.68359375 0.19140625 C-12.35159866 -1.7685315 -7.54577686 -1.6639998 0 0 Z " fill="#000000" transform="translate(187.86328125,71.5625)"/>
<path d="M0 0 C1.80078125 1.4609375 1.80078125 1.4609375 3.3125 3.375 C4.08013672 4.31472656 4.08013672 4.31472656 4.86328125 5.2734375 C6 7 6 7 6 9 C-22 17 -22 17 -50 25 C-49.125 17.375 -49.125 17.375 -48 14 C-45.4375 12.7890625 -45.4375 12.7890625 -42 11.625 C-41.38205566 11.41367432 -40.76411133 11.20234863 -40.12744141 10.98461914 C-34.53540534 9.10368684 -28.87706229 7.44073599 -23.20605469 5.81616211 C-17.90632324 4.2949429 -12.70243057 2.57387848 -7.515625 0.69921875 C-4.7968297 -0.05647125 -2.80227674 -0.37271661 0 0 Z " fill="#FBECAA" transform="translate(209,183)"/>
<path d="M0 0 C0.66 0 1.32 0 2 0 C2.495 2.475 2.495 2.475 3 5 C2.33613281 5.45890625 1.67226562 5.9178125 0.98828125 6.390625 C0.10527344 7.00421875 -0.77773437 7.6178125 -1.6875 8.25 C-2.55761719 8.85328125 -3.42773438 9.4565625 -4.32421875 10.078125 C-19.08949389 20.68325692 -27.86223741 36.11142181 -31.58203125 53.76171875 C-34.5675797 76.89274362 -29.02121681 95.85218803 -15.0625 114.5546875 C-12.49535948 117.59830486 -9.69682066 120.11207776 -6.56640625 122.5625 C-5 124 -5 124 -4 127 C-4.66 127.66 -5.32 128.32 -6 129 C-7.32 127.02 -8.64 125.04 -10 123 C-11.485 123.495 -11.485 123.495 -13 124 C-13 123.34 -13 122.68 -13 122 C-14.32 121.34 -15.64 120.68 -17 120 C-17 119.01 -17 118.02 -17 117 C-18.43750191 115.31201173 -18.43750191 115.31201173 -20 114 C-21.485 114.495 -21.485 114.495 -23 115 C-23.99 112.03 -23.99 112.03 -25 109 C-25.66 109 -26.32 109 -27 109 C-29.05269725 106.04411596 -30.21910025 103.47855343 -31 100 C-31.165 99.27941406 -31.33 98.55882812 -31.5 97.81640625 C-31.84217346 96.27395247 -32.18190057 94.73095452 -32.51953125 93.1875 C-32.89541498 91.47615943 -33.28821578 89.7685326 -33.6875 88.0625 C-34 86 -34 86 -33 84 C-33.66 84 -34.32 84 -35 84 C-34.67 82.68 -34.34 81.36 -34 80 C-34.66 80 -35.32 80 -36 80 C-35.67 78.02 -35.34 76.04 -35 74 C-35.66 74 -36.32 74 -37 74 C-37 69.05 -37 64.1 -37 59 C-36.34 59 -35.68 59 -35 59 C-35.33 57.35 -35.66 55.7 -36 54 C-35.34 54 -34.68 54 -34 54 C-34.33 52.68 -34.66 51.36 -35 50 C-34.34 50 -33.68 50 -33 50 C-33.28230469 49.13761719 -33.28230469 49.13761719 -33.5703125 48.2578125 C-35.37021268 38.80015521 -25.46648989 25.86862475 -21 18 C-20.34 18 -19.68 18 -19 18 C-18.71125 17.4225 -18.4225 16.845 -18.125 16.25 C-17.75375 15.5075 -17.3825 14.765 -17 14 C-16.71125 13.278125 -16.4225 12.55625 -16.125 11.8125 C-15 10 -15 10 -13.1875 9.5625 C-10.70267002 9.12979453 -10.70267002 9.12979453 -8.625 6.5 C-5.65123705 3.66784481 -4.02086746 3.28052564 0 3 C0 2.01 0 1.02 0 0 Z M-7 6 C-6 8 -6 8 -6 8 Z " fill="#5F462F" transform="translate(141,92)"/>
<path d="M0 0 C0.66 0 1.32 0 2 0 C2.02911003 3.89581756 2.04683587 7.791607 2.0625 11.6875 C2.07087891 12.79029297 2.07925781 13.89308594 2.08789062 15.02929688 C2.09111328 16.09599609 2.09433594 17.16269531 2.09765625 18.26171875 C2.10289307 19.24100342 2.10812988 20.22028809 2.11352539 21.22924805 C2.00308543 23.92469572 1.60534166 26.37545639 1 29 C0.34 29 -0.32 29 -1 29 C-1 29.66 -1 30.32 -1 31 C-0.34 31.33 0.32 31.66 1 32 C0.484375 32.78375 -0.03125 33.5675 -0.5625 34.375 C-1.036875 35.24125 -1.51125 36.1075 -2 37 C-1.67 37.66 -1.34 38.32 -1 39 C-2.32 39.66 -3.64 40.32 -5 41 C-5 41.66 -5 42.32 -5 43 C-4.34 43.33 -3.68 43.66 -3 44 C-3.66 44.66 -4.32 45.32 -5 46 C-5 46.66 -5 47.32 -5 48 C-6.375 49.625 -6.375 49.625 -8 51 C-8.66 51 -9.32 51 -10 51 C-9.67 51.99 -9.34 52.98 -9 54 C-9.99 54.66 -10.98 55.32 -12 56 C-13.76455506 58.03602507 -14.88920529 59.39062911 -15.375 62.0625 C-16.32383091 65.00387583 -18.34527823 65.52515457 -21 67 C-23.0593273 68.60492174 -25.01994434 70.29623118 -27 72 C-27.99 71.34 -28.98 70.68 -30 70 C-29.46632812 69.66871094 -28.93265625 69.33742188 -28.3828125 68.99609375 C-13.23091294 58.53656447 -5.69124644 39.71887875 -2.35498047 22.23144531 C-1.56667387 17.27606543 -1.35162197 12.30191738 -1.17578125 7.29296875 C-1.0354024 4.66320504 -0.77364539 2.49705058 0 0 Z " fill="#5E4327" transform="translate(253,146)"/>
<path d="M0 0 C1.66015625 1.515625 1.66015625 1.515625 3 3 C-7.11930757 6.44890258 -17.27583994 9.74932132 -27.5 12.875 C-29.01315796 13.34015015 -29.01315796 13.34015015 -30.55688477 13.81469727 C-31.49717529 14.10014404 -32.43746582 14.38559082 -33.40625 14.6796875 C-34.66405273 15.06229736 -34.66405273 15.06229736 -35.94726562 15.45263672 C-38 16 -38 16 -40 16 C-40.33 13.69 -40.66 11.38 -41 9 C-39.9805127 8.76289307 -38.96102539 8.52578613 -37.91064453 8.28149414 C-34.13433377 7.40252088 -30.35880088 6.52024604 -26.58349609 5.63696289 C-24.94829048 5.25487363 -23.31287429 4.87368442 -21.67724609 4.4934082 C-19.32854383 3.94718181 -16.98061372 3.39774084 -14.6328125 2.84765625 C-13.89942657 2.6778273 -13.16604065 2.50799835 -12.41043091 2.33302307 C-1.76188576 -0.17189129 -1.76188576 -0.17189129 0 0 Z " fill="#AF7F30" transform="translate(201,181)"/>
<path d="M0 0 C1.32 0 2.64 0 4 0 C11 22.03045685 11 22.03045685 11 28 C14.96 27.505 14.96 27.505 19 27 C15.45917084 29.1244975 12.05008109 29.46508363 8 30 C7.67 30.33 7.34 30.66 7 31 C5.00041636 31.04080783 2.99954746 31.04254356 1 31 C1 29.35 1 27.7 1 26 C1.33 27.32 1.66 28.64 2 30 C3.32 30 4.64 30 6 30 C5.78794922 29.33468262 5.57589844 28.66936523 5.35742188 27.98388672 C4.3960632 24.95032471 3.44793446 21.91278226 2.5 18.875 C2.16613281 17.82828125 1.83226562 16.7815625 1.48828125 15.703125 C1.17246094 14.68476563 0.85664063 13.66640625 0.53125 12.6171875 C0.23798828 11.68503418 -0.05527344 10.75288086 -0.35742188 9.79248047 C-1.05527626 6.7597835 -1.18098983 4.10196463 -1 1 C-0.67 0.67 -0.34 0.34 0 0 Z " fill="#FCEBAC" transform="translate(170,151)"/>
<path d="M0 0 C0.26554687 0.53496094 0.53109375 1.06992188 0.8046875 1.62109375 C6.7934123 13.53983035 12.7516053 25.20086521 23.43359375 33.5625 C25 35 25 35 26 38 C25.34 38.66 24.68 39.32 24 40 C22.68 38.02 21.36 36.04 20 34 C18.515 34.495 18.515 34.495 17 35 C17 34.34 17 33.68 17 33 C15.68 32.34 14.36 31.68 13 31 C13 30.01 13 29.02 13 28 C11.56249809 26.31201173 11.56249809 26.31201173 10 25 C9.01 25.33 8.02 25.66 7 26 C6.34 24.02 5.68 22.04 5 20 C4.34 20 3.68 20 3 20 C0.97123039 17.07857176 -0.34594294 14.4883043 -1 11 C-1.226875 10.21625 -1.45375 9.4325 -1.6875 8.625 C-2.08289175 5.30370932 -1.21660782 3.07730213 0 0 Z " fill="#5B4228" transform="translate(111,181)"/>
<path d="M0 0 C6.6 0 13.2 0 20 0 C20 0.66 20 1.32 20 2 C21.32 2.33 22.64 2.66 24 3 C23.67 3.66 23.34 4.32 23 5 C22.37134033 4.98428955 21.74268066 4.9685791 21.0949707 4.95239258 C3.95529547 4.58084744 -9.21512669 5.80437307 -25 13 C-24.74609375 11.14453125 -24.74609375 11.14453125 -24 9 C-22.22265625 7.69921875 -22.22265625 7.69921875 -20.0625 6.6875 C-19.35222656 6.34074219 -18.64195312 5.99398437 -17.91015625 5.63671875 C-16.96462891 5.32154297 -16.96462891 5.32154297 -16 5 C-15.34 5.33 -14.68 5.66 -14 6 C-13.67 5.34 -13.34 4.68 -13 4 C-10 2 -10 2 -7 2 C-6.67 1.67 -6.34 1.34 -6 1 C-4.00041636 0.95919217 -1.99954746 0.95745644 0 1 C0 0.67 0 0.34 0 0 Z " fill="#674F30" transform="translate(169,83)"/>
<path d="M0 0 C0.66 0.33 1.32 0.66 2 1 C-4.84411666 7.06637613 -4.84411666 7.06637613 -10.04296875 6.95703125 C-10.75066406 6.90933594 -11.45835937 6.86164063 -12.1875 6.8125 C-15.89359717 6.73403214 -18.06890141 7.36166186 -21.3125 9.125 C-26.95645874 11.98700745 -32.08996117 10.48000972 -38 9 C-36.31103758 6.93266613 -35.44375244 6.07370014 -32.765625 5.62890625 C-31.93546875 5.60699219 -31.1053125 5.58507812 -30.25 5.5625 C-25.92949046 5.27612617 -23.63996344 4.26477902 -19.98828125 1.859375 C-15.24017116 -0.19285333 -8.67634316 0.22932527 -3.76171875 1.64453125 C-3.18035156 1.76183594 -2.59898437 1.87914062 -2 2 C-1.34 1.34 -0.68 0.68 0 0 Z " fill="#B37D32" transform="translate(194,133)"/>
<path d="M0 0 C1.32 0 2.64 0 4 0 C5.7133667 6.16236091 6.56078007 12.13633916 7.125 18.5 C7.21136719 19.4178125 7.29773438 20.335625 7.38671875 21.28125 C7.59663766 23.520385 7.80094909 25.75987727 8 28 C6.68 28 5.36 28 4 28 C3.3245086 24.45995797 2.66119202 20.91773831 2 17.375 C1.80921875 16.37597656 1.6184375 15.37695312 1.421875 14.34765625 C0.52472864 9.50947407 -0.27009288 4.94607582 0 0 Z " fill="#C9944A" transform="translate(194,146)"/>
<path d="M0 0 C1.98 0.99 1.98 0.99 4 2 C4 2.66 4 3.32 4 4 C4.98078868 5.01884914 5.98487755 6.01535467 7 7 C10.87738023 12.09091144 13.57262135 16.69574429 15 23 C15.391875 24.093125 15.78375 25.18625 16.1875 26.3125 C17 29 17 29 16 31 C16.66 31 17.32 31 18 31 C17.67 33.64 17.34 36.28 17 39 C14.17659526 36.17659526 13.74321275 32.81920727 12.75 29.0625 C10.37094932 20.5313519 7.24591319 13.0146821 1.625 6.0625 C0 4 0 4 0 0 Z " fill="#4F422B" transform="translate(236,111)"/>
<path d="M0 0 C0.66 0 1.32 0 2 0 C5.51089506 7.72396914 5.12280565 15.69015126 5 24 C4.01 24 3.02 24 2 24 C1.67 21.69 1.34 19.38 1 17 C0.34 17 -0.32 17 -1 17 C-1.22126178 14.54220024 -1.42750395 12.08472352 -1.625 9.625 C-1.68945312 8.92632812 -1.75390625 8.22765625 -1.8203125 7.5078125 C-1.96119739 5.67630889 -1.98761659 3.83687252 -2 2 C-1.34 1.34 -0.68 0.68 0 0 Z " fill="#FCF2B3" transform="translate(191,147)"/>
<path d="M0 0 C0.66 0 1.32 0 2 0 C3.34018305 4.26871471 4.67097109 8.54030064 6 12.8125 C6.3815625 14.02744141 6.763125 15.24238281 7.15625 16.49414062 C7.5171875 17.65751953 7.878125 18.82089844 8.25 20.01953125 C8.58515625 21.09307861 8.9203125 22.16662598 9.265625 23.27270508 C10 26 10 26 10 29 C8.68 29 7.36 29 6 29 C-0.37705096 8.23807454 -0.37705096 8.23807454 -1 1 C-0.67 0.67 -0.34 0.34 0 0 Z " fill="#BE8649" transform="translate(166,152)"/>
<path d="M0 0 C0 4.95 0 9.9 0 15 C-1.65 15.33 -3.3 15.66 -5 16 C-5 13.03 -5 10.06 -5 7 C-7.31 7 -9.62 7 -12 7 C-11.34415558 5.81524878 -10.64861807 4.65242286 -9.9375 3.5 C-9.55464844 2.8503125 -9.17179688 2.200625 -8.77734375 1.53125 C-7 0 -7 0 0 0 Z " fill="#FCF1B4" transform="translate(204,138)"/>
<path d="M0 0 C0.66 0 1.32 0 2 0 C4.34881011 9.62328026 6.56327384 19.18867268 8 29 C7.01 29 6.02 29 5 29 C3.98990734 25.27349238 2.99371446 21.54340541 2 17.8125 C1.71382812 16.75740234 1.42765625 15.70230469 1.1328125 14.61523438 C0.86210937 13.59365234 0.59140625 12.57207031 0.3125 11.51953125 C0.06113281 10.58214111 -0.19023437 9.64475098 -0.44921875 8.67895508 C-0.99564938 6.02116104 -1.17626422 3.70440529 -1 1 C-0.67 0.67 -0.34 0.34 0 0 Z " fill="#AD7035" transform="translate(176,150)"/>
<path d="M0 0 C0.99 0 1.98 0 3 0 C3.96387694 3.14416115 4.92005292 6.29061626 5.875 9.4375 C6.14441406 10.31599609 6.41382813 11.19449219 6.69140625 12.09960938 C8.38475701 17.69592712 9.80067826 23.27702297 11 29 C9.68 29 8.36 29 7 29 C5.82483331 24.919064 4.66134593 20.83488859 3.5 16.75 C3.16613281 15.59113281 2.83226562 14.43226563 2.48828125 13.23828125 C2.17246094 12.12324219 1.85664063 11.00820312 1.53125 9.859375 C1.23798828 8.83295898 0.94472656 7.80654297 0.64257812 6.74902344 C0 4 0 4 0 0 Z " fill="#9F5C20" transform="translate(156,154)"/>
<path d="M0 0 C1.32 0 2.64 0 4 0 C4.6754914 3.54004203 5.33880798 7.08226169 6 10.625 C6.19078125 11.62402344 6.3815625 12.62304688 6.578125 13.65234375 C7.47527136 18.49052593 8.27009288 23.05392418 8 28 C7.01 27.67 6.02 27.34 5 27 C4.20043945 24.73095703 4.20043945 24.73095703 3.61328125 21.7578125 C3.39736328 20.69175781 3.18144531 19.62570313 2.95898438 18.52734375 C2.63897461 16.84318359 2.63897461 16.84318359 2.3125 15.125 C2.08755859 14.00996094 1.86261719 12.89492187 1.63085938 11.74609375 C0 3.52735562 0 3.52735562 0 0 Z " fill="#98541F" transform="translate(184,148)"/>
<path d="M0 0 C0.66 0.33 1.32 0.66 2 1 C1.01782819 4.30366882 -0.58936882 5.53819039 -3.484375 7.140625 C-4.89994345 7.85636186 -6.32214389 8.55910188 -7.75 9.25 C-8.45382813 9.61351562 -9.15765625 9.97703125 -9.8828125 10.3515625 C-14.08992012 12.4316566 -17.19942555 13.45288438 -22 13 C-22 12.34 -22 11.68 -22 11 C-22.99 10.67 -23.98 10.34 -25 10 C-24.11699219 9.78085938 -23.23398438 9.56171875 -22.32421875 9.3359375 C-14.85681363 7.36281005 -8.72874732 5.11830273 -2.109375 1.07421875 C-1.41328125 0.71972656 -0.7171875 0.36523438 0 0 Z " fill="#F5F4F1" transform="translate(217,216)"/>
<path d="M0 0 C1.32 0.66 2.64 1.32 4 2 C2.68692823 5.54340898 1.10180268 8.57429201 -0.9375 11.75 C-3.75264542 16.33407543 -5.57541977 20.82652443 -7 26 C-9.1281075 22.10813025 -9.21303637 20.36693094 -8 16 C-6.46407853 12.59546649 -4.74634659 9.30043484 -3 6 C-2.39202158 4.79358007 -1.78707228 3.58561963 -1.1875 2.375 C-0.795625 1.59125 -0.40375 0.8075 0 0 Z " fill="#553E2C" transform="translate(118,113)"/>
<path d="M0 0 C0.66 0.33 1.32 0.66 2 1 C-1.68745396 5.98890829 -7.04844065 6.76197652 -12.75 8.25 C-13.73355469 8.518125 -14.71710938 8.78625 -15.73046875 9.0625 C-18.15066762 9.72041814 -20.5735158 10.36573305 -23 11 C-23 9.68 -23 8.36 -23 7 C-21.44033782 6.491217 -19.87710759 5.99336531 -18.3125 5.5 C-17.44238281 5.2215625 -16.57226562 4.943125 -15.67578125 4.65625 C-13 4 -13 4 -10.4296875 4.03515625 C-7.63176277 3.99467181 -6.22188582 3.31229462 -3.8125 1.9375 C-1.76953125 0.77734375 -1.76953125 0.77734375 0 0 Z " fill="#FBEFBF" transform="translate(182,197)"/>
<path d="M0 0 C0.76183594 0.45890625 1.52367187 0.9178125 2.30859375 1.390625 C8.39841426 5.00954456 14.43422856 8.33058282 21 11 C20.34 12.32 19.68 13.64 19 15 C18.38125 14.608125 17.7625 14.21625 17.125 13.8125 C13.59334461 11.76413988 9.97277826 9.97304228 6.3046875 8.18359375 C4 7 4 7 1 5 C0.3125 2.375 0.3125 2.375 0 0 Z " fill="#594225" transform="translate(136,216)"/>
<path d="M0 0 C2.3125 -0.1875 2.3125 -0.1875 5 0 C6.66796875 1.51171875 6.66796875 1.51171875 8 3 C5.1679225 3.96218017 2.33443873 4.9198208 -0.5 5.875 C-1.29148438 6.14441406 -2.08296875 6.41382813 -2.8984375 6.69140625 C-7.89208823 8.36960035 -12.87263863 9.78871968 -18 11 C-16.17251097 8.53686261 -14.77023784 7.16571382 -11.73046875 6.51171875 C-9.48520654 6.27481707 -7.25544422 6.09638651 -5 6 C-5 5.34 -5 4.68 -5 4 C-4.360625 3.71125 -3.72125 3.4225 -3.0625 3.125 C-0.84793921 2.17176549 -0.84793921 2.17176549 0 0 Z " fill="#BA853C" transform="translate(196,181)"/>
<path d="M0 0 C-0.33 0.99 -0.66 1.98 -1 3 C-8.59 3 -16.18 3 -24 3 C-24 2.34 -24 1.68 -24 1 C-21.31264212 0.83071761 -18.62515116 0.6645047 -15.9375 0.5 C-14.80924805 0.42845703 -14.80924805 0.42845703 -13.65820312 0.35546875 C-9.09508249 0.07891598 -4.57143477 -0.0485677 0 0 Z " fill="#FBFAF9" transform="translate(195,227)"/>
<path d="M0 0 C0.99 0.33 1.98 0.66 3 1 C5.22818441 1.06937062 7.45834524 1.08457084 9.6875 1.0625 C10.86699219 1.05347656 12.04648438 1.04445313 13.26171875 1.03515625 C14.16535156 1.02355469 15.06898438 1.01195313 16 1 C16 1.33 16 1.66 16 2 C15.00419922 2.02126953 15.00419922 2.02126953 13.98828125 2.04296875 C8.05810321 2.36167266 8.05810321 2.36167266 3 5.3125 C1.36169607 7.51397091 0.03196016 9.46700687 -1 12 C-1.66 12 -2.32 12 -3 12 C-2.49202991 7.6822542 -1.80317221 3.96697886 0 0 Z " fill="#B2752E" transform="translate(184,110)"/>
<path d="M0 0 C0.33 0 0.66 0 1 0 C1.66 2.31 2.32 4.62 3 7 C3.33 7 3.66 7 4 7 C4.33 5.02 4.66 3.04 5 1 C5.33 1 5.66 1 6 1 C6.33 3.97 6.66 6.94 7 10 C8.32 10.33 9.64 10.66 11 11 C2.96428571 13.27678571 2.96428571 13.27678571 -1 12 C-0.34 12 0.32 12 1 12 C0.67 8.04 0.34 4.08 0 0 Z " fill="#F4DC91" transform="translate(191,164)"/>
<path d="M0 0 C0.33 0 0.66 0 1 0 C2.74675802 5.99674407 3.25682842 11.27364221 3.125 17.5 C3.11597656 18.32242188 3.10695312 19.14484375 3.09765625 19.9921875 C3.07436865 21.99492083 3.03850959 23.99750154 3 26 C2.67 26 2.34 26 2 26 C2 21.38 2 16.76 2 12 C1.34 12 0.68 12 0 12 C0 15.63 0 19.26 0 23 C-0.33 23 -0.66 23 -1 23 C-1.18451025 7.25512528 -1.18451025 7.25512528 0 0 Z " fill="#DFD5C7" transform="translate(249,140)"/>
<path d="M0 0 C1.32 0 2.64 0 4 0 C4 5.28 4 10.56 4 16 C3.34 16.33 2.68 16.66 2 17 C-0.29612756 5.47835991 -0.29612756 5.47835991 0 0 Z " fill="#B77C40" transform="translate(194,146)"/>
<path d="M0 0 C0.66 0.66 1.32 1.32 2 2 C0.57951168 5.55122081 -0.61305708 6.40061029 -4 8 C-6.06776444 9.59643578 -8.02160437 11.29138559 -10 13 C-10.99 12.34 -11.98 11.68 -13 11 C-12.39671875 10.54109375 -11.7934375 10.0821875 -11.171875 9.609375 C-9.97304687 8.68898437 -9.97304687 8.68898437 -8.75 7.75 C-7.96109375 7.14671875 -7.1721875 6.5434375 -6.359375 5.921875 C-4.08368843 4.06817005 -2.03628442 2.11101046 0 0 Z " fill="#412B19" transform="translate(236,205)"/>
<path d="M0 0 C0.66 0 1.32 0 2 0 C2 7.92 2 15.84 2 24 C1.34 24.33 0.68 24.66 0 25 C-1.49565341 17.1478196 -2.40802782 7.70186675 0 0 Z " fill="#493011" transform="translate(253,146)"/>
<path d="M0 0 C6.6 0 13.2 0 20 0 C20 0.66 20 1.32 20 2 C16.98141234 3.50929383 13.87099046 3.22510073 10.5625 3.25 C9.5405957 3.2809375 9.5405957 3.2809375 8.49804688 3.3125 C6.50390625 3.328125 6.50390625 3.328125 3 3 C2.01 2.01 1.02 1.02 0 0 Z " fill="#49361B" transform="translate(169,83)"/>
<path d="M0 0 C-0.33 0.99 -0.66 1.98 -1 3 C-3.31 2.34 -5.62 1.68 -8 1 C-8 1.66 -8 2.32 -8 3 C-7.34 3.33 -6.68 3.66 -6 4 C-7.65 4 -9.3 4 -11 4 C-11 3.34 -11 2.68 -11 2 C-11.66 2 -12.32 2 -13 2 C-13.33 2.66 -13.66 3.32 -14 4 C-14.5775 3.814375 -15.155 3.62875 -15.75 3.4375 C-18.20692525 2.95976454 -19.64397534 3.24270636 -22 4 C-22.33 3.01 -22.66 2.02 -23 1 C-15.31395526 0.02840067 -7.74136601 -0.10920422 0 0 Z " fill="#110C09" transform="translate(195,231)"/>
<path d="M0 0 C0.33 0.66 0.66 1.32 1 2 C-0.98 2 -2.96 2 -5 2 C-5 2.66 -5 3.32 -5 4 C-8.47325181 5.1577506 -11.36067448 5.06866652 -15 5 C-14.67 4.01 -14.34 3.02 -14 2 C-11.34765625 1.015625 -11.34765625 1.015625 -8.0625 0.25 C-6.98097656 -0.01296875 -5.89945313 -0.2759375 -4.78515625 -0.546875 C-2 -1 -2 -1 0 0 Z " fill="#AE7830" transform="translate(196,183)"/>
<path d="M0 0 C1.32 0 2.64 0 4 0 C4.36463732 1.74784829 4.7163078 3.49840502 5.0625 5.25 C5.25972656 6.22453125 5.45695313 7.1990625 5.66015625 8.203125 C5.98397535 10.868119 5.85503199 12.48871723 5 15 C4.34 14.01 3.68 13.02 3 12 C2.67 12 2.34 12 2 12 C1.34 8.04 0.68 4.08 0 0 Z " fill="#A3652E" transform="translate(184,148)"/>
<path d="M0 0 C1.485 0.99 1.485 0.99 3 2 C3.969375 2.268125 4.93875 2.53625 5.9375 2.8125 C9.54534516 4.21146037 10.84497457 5.85034745 13 9 C12.01 10.485 12.01 10.485 11 12 C9.68 10.02 8.36 8.04 7 6 C6.01 6.33 5.02 6.66 4 7 C4 6.34 4 5.68 4 5 C2.68 4.34 1.36 3.68 0 3 C0 2.01 0 1.02 0 0 Z " fill="#442E12" transform="translate(124,209)"/>
<path d="M0 0 C2.51620531 1.25810265 2.80835636 2.30353155 4 4.8125 C4.495 5.84310547 4.495 5.84310547 5 6.89453125 C5.33 7.58933594 5.66 8.28414062 6 9 C7.36952616 11.8801867 8.62689821 13.84263474 11 16 C10.01 16.66 9.02 17.32 8 18 C7.34 16.02 6.68 14.04 6 12 C5.34 12 4.68 12 4 12 C1.09891706 8.17057052 0.46319911 4.72463088 0 0 Z " fill="#030202" transform="translate(110,189)"/>
<path d="M0 0 C0.66 0.33 1.32 0.66 2 1 C-4.65116279 6.89534884 -4.65116279 6.89534884 -8 7 C-11.25 6.0625 -11.25 6.0625 -14 5 C-12.11745242 3.11745242 -10.72398785 2.0472166 -8.0234375 1.87109375 C-7.31445312 1.89300781 -6.60546875 1.91492188 -5.875 1.9375 C-3.956875 1.9684375 -3.956875 1.9684375 -2 2 C-1.34 1.34 -0.68 0.68 0 0 Z " fill="#AD782D" transform="translate(194,133)"/>
<path d="M0 0 C0.99 0.33 1.98 0.66 3 1 C3 1.66 3 2.32 3 3 C3.99 3.33 4.98 3.66 6 4 C6.33 6.31 6.66 8.62 7 11 C5.84481082 10.09515208 4.70114594 9.1755794 3.5625 8.25 C2.60537109 7.48429687 2.60537109 7.48429687 1.62890625 6.703125 C-0.19679464 4.7942387 -0.69919045 3.6033699 -1 1 C-0.67 0.67 -0.34 0.34 0 0 Z " fill="#5E4A24" transform="translate(229,102)"/>
<path d="M0 0 C2.11044382 3.16566573 2.75552077 5.51197415 3.625 9.1875 C3.88539063 10.27417969 4.14578125 11.36085937 4.4140625 12.48046875 C4.60742188 13.31191406 4.80078125 14.14335937 5 15 C3.68 15 2.36 15 1 15 C0.34 12.03 -0.32 9.06 -1 6 C-0.34 6 0.32 6 1 6 C0.67 4.02 0.34 2.04 0 0 Z " fill="#B1732E" transform="translate(162,168)"/>
<path d="M0 0 C0.26425781 0.54398438 0.52851562 1.08796875 0.80078125 1.6484375 C2.68855185 5.35018962 4.79149584 8.93315198 6.85546875 12.5390625 C7.23316406 13.35117188 7.61085938 14.16328125 8 15 C7.67 15.66 7.34 16.32 7 17 C3.51668565 13.98112756 2.20842856 11.43090471 1 7 C0.01 7.33 -0.98 7.66 -2 8 C-1.34 5.36 -0.68 2.72 0 0 Z " fill="#6C5239" transform="translate(111,181)"/>
<path d="M0 0 C0.66 0 1.32 0 2 0 C2.33 1.65 2.66 3.3 3 5 C0 7 0 7 -2.9375 6.9375 C-6.40280433 7.0082205 -7.50438349 7.69635399 -10 10 C-10 9.01 -10 8.02 -10 7 C-6.9919792 3.9919792 -4.14536674 3.4710644 0 3 C0 2.01 0 1.02 0 0 Z " fill="#65442B" transform="translate(141,92)"/>
<path d="M0 0 C4.62 0 9.24 0 14 0 C13.67 0.99 13.34 1.98 13 3 C11.34385343 3.38218767 9.67542976 3.71395102 8 4 C7.67 3.67 7.34 3.34 7 3 C5.65252916 2.76924918 4.29622435 2.58846937 2.9375 2.4375 C1.638125 2.293125 0.33875 2.14875 -1 2 C-0.67 1.34 -0.34 0.68 0 0 Z " fill="#B17531" transform="translate(157,140)"/>
<path d="M0 0 C3.75 -0.375 3.75 -0.375 7 0 C7 0.66 7 1.32 7 2 C4.18236593 4.81763407 2.71433365 5.94608803 -1.3125 6.25 C-2.199375 6.1675 -3.08625 6.085 -4 6 C-2.4375 3 -2.4375 3 0 0 Z " fill="#FEF7C0" transform="translate(196,139)"/>
<path d="M0 0 C-1 3 -1 3 -4 5 C-7.1875 5.125 -7.1875 5.125 -10 5 C-10 4.34 -10 3.68 -10 3 C-10.99 2.67 -11.98 2.34 -13 2 C-11.21089097 1.47044766 -9.41860852 0.9516063 -7.625 0.4375 C-6.62726563 0.14746094 -5.62953125 -0.14257812 -4.6015625 -0.44140625 C-2 -1 -2 -1 0 0 Z " fill="#E6DFD7" transform="translate(205,224)"/>
<path d="M0 0 C1.57554035 2.88628401 2.46276373 5.53342384 3.125 8.75 C3.29257813 9.54921875 3.46015625 10.3484375 3.6328125 11.171875 C3.81457031 12.07679688 3.81457031 12.07679688 4 13 C3.01 13.33 2.02 13.66 1 14 C0.01 10.7 -0.98 7.4 -2 4 C-1.34 4 -0.68 4 0 4 C0 2.68 0 1.36 0 0 Z " fill="#E9E8DC" transform="translate(112,173)"/>
<path d="M0 0 C8.58 0 17.16 0 26 0 C25.67 0.99 25.34 1.98 25 3 C21.20771856 2.89047884 17.4164616 2.75976759 13.625 2.625 C12.00464844 2.57859375 12.00464844 2.57859375 10.3515625 2.53125 C8.8046875 2.47324219 8.8046875 2.47324219 7.2265625 2.4140625 C6.27346191 2.3826416 5.32036133 2.3512207 4.33837891 2.31884766 C2 2 2 2 0 0 Z " fill="#8F693B" transform="translate(167,85)"/>
<path d="M0 0 C0.66 0 1.32 0 2 0 C3.125 4.75 3.125 4.75 2 7 C2.66 7 3.32 7 4 7 C3.67 9.64 3.34 12.28 3 15 C0.57418129 12.57418129 0.03644336 10.92566131 -0.09765625 7.51953125 C-0.08605469 6.62621094 -0.07445312 5.73289063 -0.0625 4.8125 C-0.05347656 3.91144531 -0.04445312 3.01039063 -0.03515625 2.08203125 C-0.02355469 1.39496094 -0.01195312 0.70789063 0 0 Z " fill="#574324" transform="translate(250,135)"/>
<path d="M0 0 C1.32 0.33 2.64 0.66 4 1 C4 0.67 4 0.34 4 0 C5.65 0 7.3 0 9 0 C9.33 1.32 9.66 2.64 10 4 C6.7 4.33 3.4 4.66 0 5 C0.33 4.34 0.66 3.68 1 3 C0.67 2.01 0.34 1.02 0 0 Z " fill="#503C26" transform="translate(159,84)"/>
<path d="M0 0 C3 2 3 2 3.73046875 4.3828125 C3.88128906 5.28773438 4.03210938 6.19265625 4.1875 7.125 C4.34605469 8.03507813 4.50460938 8.94515625 4.66796875 9.8828125 C4.83232422 10.93082031 4.83232422 10.93082031 5 12 C4.01 12 3.02 12 2 12 C0.70756464 7.8803623 -0.26252625 4.33168317 0 0 Z " fill="#A16025" transform="translate(179,167)"/>
<path d="M0 0 C-0.45196245 1.60597325 -0.91182327 3.20972508 -1.375 4.8125 C-1.63023438 5.70582031 -1.88546875 6.59914062 -2.1484375 7.51953125 C-3 10 -3 10 -5 13 C-5.91464004 8.33533582 -6.36608693 5.23405029 -4 1 C-2 0 -2 0 0 0 Z " fill="#5B4436" transform="translate(115,126)"/>
<path d="M0 0 C-1 3 -1 3 -3.875 4.6875 C-8.76778898 6.64870143 -13.819861 6.25291818 -19 6 C-19 5.67 -19 5.34 -19 5 C-18.03900391 4.96132812 -18.03900391 4.96132812 -17.05859375 4.921875 C-11.00604112 4.5249863 -5.21378471 0 0 0 Z " fill="#C79348" transform="translate(178,134)"/>
<path d="M0 0 C2 1 2 1 3.125 3.1875 C4.08328236 6.26769331 4.14915816 8.79309948 4 12 C3.01 12.33 2.02 12.66 1 13 C1.020625 12.05125 1.04125 11.1025 1.0625 10.125 C1.22551826 7.09333717 1.22551826 7.09333717 0 5 C0.33 4.34 0.66 3.68 1 3 C0.34 3 -0.32 3 -1 3 C-0.67 2.01 -0.34 1.02 0 0 Z " fill="#392714" transform="translate(107,173)"/>
<path d="M0 0 C1.91796875 0.36328125 1.91796875 0.36328125 4 1 C6.33267768 4.88779613 6.00449686 7.68066349 5 12 C3.20931427 9.3139714 2.33944209 7.3373411 1.375 4.3125 C1.11460937 3.50425781 0.85421875 2.69601563 0.5859375 1.86328125 C0.39257812 1.24839844 0.19921875 0.63351563 0 0 Z " fill="#645036" transform="translate(245,128)"/>
<path d="M0 0 C5.75 1.625 5.75 1.625 8 5 C7.67 5.99 7.34 6.98 7 8 C4.36 6.02 1.72 4.04 -1 2 C-0.67 1.34 -0.34 0.68 0 0 Z " fill="#624C23" transform="translate(220,97)"/>
<path d="M0 0 C3.14737182 0.69941596 6.02588876 1.76078698 9 3 C8.34 4.32 7.68 5.64 7 7 C3.42895561 5.12050295 1.45255699 3.82946843 0 0 Z " fill="#523E2B" transform="translate(148,224)"/>
<path d="M0 0 C0.33 0.99 0.66 1.98 1 3 C-1.57784846 5.64752004 -3.91648098 7.94432065 -7 10 C-7 7 -7 7 -5.46875 5.17578125 C-4.8190625 4.56089844 -4.169375 3.94601563 -3.5 3.3125 C-2.8503125 2.68988281 -2.200625 2.06726563 -1.53125 1.42578125 C-0.77328125 0.72001953 -0.77328125 0.72001953 0 0 Z " fill="#F0EBDC" transform="translate(233,204)"/>
<path d="M0 0 C0.66 0.33 1.32 0.66 2 1 C1.71517632 2.41805831 1.42181856 3.83440379 1.125 5.25 C0.88136719 6.43335937 0.88136719 6.43335937 0.6328125 7.640625 C0.00849925 9.96831144 -0.84838542 11.89031952 -2 14 C-2.05437607 12.41705218 -2.09296271 10.83355744 -2.125 9.25 C-2.14820313 8.36828125 -2.17140625 7.4865625 -2.1953125 6.578125 C-1.99139502 3.8864142 -1.36551721 2.30095026 0 0 Z " fill="#875517" transform="translate(156,118)"/>
<path d="M0 0 C0 0.99 0 1.98 0 3 C-0.66 3 -1.32 3 -2 3 C-2 2.34 -2 1.68 -2 1 C-2.66 1 -3.32 1 -4 1 C-4 1.99 -4 2.98 -4 4 C-4.66 4 -5.32 4 -6 4 C-6.33 4.33 -6.66 4.66 -7 5 C-7.99 5 -8.98 5 -10 5 C-10.33 3.68 -10.66 2.36 -11 1 C-7.27569643 0.30710631 -3.78916254 -0.11144596 0 0 Z " fill="#332314" transform="translate(206,228)"/>
<path d="M0 0 C0.99 0.33 1.98 0.66 3 1 C5.22818441 1.06937062 7.45834524 1.08457084 9.6875 1.0625 C10.86699219 1.05347656 12.04648438 1.04445313 13.26171875 1.03515625 C14.16535156 1.02355469 15.06898438 1.01195313 16 1 C16 1.33 16 1.66 16 2 C15.00419922 2.09087891 15.00419922 2.09087891 13.98828125 2.18359375 C8.46487338 2.70011785 8.46487338 2.70011785 3 3.625 C1 4 1 4 -1 3 C-0.67 2.01 -0.34 1.02 0 0 Z " fill="#B58229" transform="translate(184,110)"/>
<path d="M0 0 C0.99 0 1.98 0 3 0 C1.63629701 2.99220268 0.05091917 5.29026529 -2.125 7.75 C-2.93324219 8.67039062 -2.93324219 8.67039062 -3.7578125 9.609375 C-4.16773437 10.06828125 -4.57765625 10.5271875 -5 11 C-5.66 10.67 -6.32 10.34 -7 10 C-6.67 9.34 -6.34 8.68 -6 8 C-5.34 8 -4.68 8 -4 8 C-3.71125 7.4225 -3.4225 6.845 -3.125 6.25 C-2.08333333 4.16666667 -1.04166667 2.08333333 0 0 Z " fill="#020302" transform="translate(126,102)"/>
<path d="M0 0 C0.85178626 2.38500154 1.09806909 3.6665651 0.375 6.125 C-1.41247034 8.56245955 -3.1632534 9.10418528 -6 10 C-4.34832443 6.4213696 -2.21713508 3.25179812 0 0 Z " fill="#7E542C" transform="translate(241,196)"/>
<path d="M0 0 C0.66 0 1.32 0 2 0 C2.6875 2.75 2.6875 2.75 3 6 C1.5625 8.375 1.5625 8.375 0 10 C-0.19412181 8.52168779 -0.38012131 7.04230684 -0.5625 5.5625 C-0.66691406 4.73878906 -0.77132812 3.91507813 -0.87890625 3.06640625 C-0.91886719 2.38449219 -0.95882812 1.70257813 -1 1 C-0.67 0.67 -0.34 0.34 0 0 Z " fill="#B7763B" transform="translate(176,150)"/>
<path d="M0 0 C0.33 0.66 0.66 1.32 1 2 C0.59007812 2.54269531 0.18015625 3.08539063 -0.2421875 3.64453125 C-0.78101563 4.35996094 -1.31984375 5.07539062 -1.875 5.8125 C-2.40867187 6.52019531 -2.94234375 7.22789063 -3.4921875 7.95703125 C-4.70814781 9.60456297 -5.86416141 11.29624211 -7 13 C-7.66 12.67 -8.32 12.34 -9 12 C-6.03 8.04 -3.06 4.08 0 0 Z " fill="#9A7139" transform="translate(129,112)"/>
<path d="M0 0 C-0.66 2.97 -1.32 5.94 -2 9 C-2.99 8.67 -3.98 8.34 -5 8 C-4.74438677 5.6568787 -4.40729228 3.32156597 -4 1 C-2 0 -2 0 0 0 Z " fill="#EDEFEF" transform="translate(250,174)"/>
<path d="M0 0 C0.33 0.66 0.66 1.32 1 2 C1.66 2.33 2.32 2.66 3 3 C0.03 4.32 -2.94 5.64 -6 7 C-5 3 -5 3 -2.4375 1.25 C-1.2309375 0.63125 -1.2309375 0.63125 0 0 Z " fill="#5E3D1F" transform="translate(150,89)"/>
<path d="M0 0 C-0.99 0 -1.98 0 -3 0 C-3.33 0.66 -3.66 1.32 -4 2 C-4.5775 1.814375 -5.155 1.62875 -5.75 1.4375 C-8.20692525 0.95976454 -9.64397534 1.24270636 -12 2 C-12.33 1.01 -12.66 0.02 -13 -1 C-11.39773045 -1.22245393 -9.79303233 -1.42746669 -8.1875 -1.625 C-7.29417969 -1.74101562 -6.40085938 -1.85703125 -5.48046875 -1.9765625 C-3 -2 -3 -2 0 0 Z " fill="#271B0B" transform="translate(185,233)"/>
<path d="M0 0 C0.33 1.32 0.66 2.64 1 4 C-1.64 4 -4.28 4 -7 4 C-6.67 3.01 -6.34 2.02 -6 1 C-3.90006779 0.25486277 -2.22568901 0 0 0 Z " fill="#A76E29" transform="translate(207,179)"/>
<path d="M0 0 C0.66 0.33 1.32 0.66 2 1 C2.125 7.75 2.125 7.75 1 10 C0.01 9.67 -0.98 9.34 -2 9 C-2 8.34 -2 7.68 -2 7 C-1.34 7 -0.68 7 0 7 C-0.185625 6.401875 -0.37125 5.80375 -0.5625 5.1875 C-1 3 -1 3 0 0 Z " fill="#3F3023" transform="translate(108,135)"/>
<path d="M0 0 C1.32 0 2.64 0 4 0 C4 0.66 4 1.32 4 2 C5.32 1.67 6.64 1.34 8 1 C7.67 1.99 7.34 2.98 7 4 C4.125 4.125 4.125 4.125 1 4 C0.34 3.34 -0.32 2.68 -1 2 C-0.67 1.34 -0.34 0.68 0 0 Z " fill="#41260C" transform="translate(191,84)"/>
<path d="M0 0 C0.33 0 0.66 0 1 0 C1 3.3 1 6.6 1 10 C0.01 10.33 -0.98 10.66 -2 11 C-1.85892253 9.54119891 -1.71197585 8.08296449 -1.5625 6.625 C-1.48128906 5.81289062 -1.40007812 5.00078125 -1.31640625 4.1640625 C-1 2 -1 2 0 0 Z " fill="#72522E" transform="translate(252,164)"/>
<path d="M0 0 C0.33 0.99 0.66 1.98 1 3 C0.34 3 -0.32 3 -1 3 C-1 3.66 -1 4.32 -1 5 C-0.34 5.33 0.32 5.66 1 6 C0.34 7.32 -0.32 8.64 -1 10 C-1.66 10 -2.32 10 -3 10 C-3 7.69 -3 5.38 -3 3 C-2.01 2.67 -1.02 2.34 0 2 C0 1.34 0 0.68 0 0 Z " fill="#38250D" transform="translate(253,172)"/>
<path d="M0 0 C0.33 0 0.66 0 1 0 C1.33 3.96 1.66 7.92 2 12 C1.01 11.67 0.02 11.34 -1 11 C-0.67 7.37 -0.34 3.74 0 0 Z " fill="#A76629" transform="translate(190,164)"/>
<path d="M0 0 C0.33 0.66 0.66 1.32 1 2 C1.66 2 2.32 2 3 2 C2.67 4.64 2.34 7.28 2 10 C1.01 9.34 0.02 8.68 -1 8 C-0.67 5.36 -0.34 2.72 0 0 Z " fill="#ECEAE6" transform="translate(110,139)"/>
<path d="M0 0 C1.9375 0.6875 1.9375 0.6875 4 2 C4.75 4.625 4.75 4.625 5 7 C4.01 7.495 4.01 7.495 3 8 C0.37613513 4.93882432 0 4.26826873 0 0 Z " fill="#5B4B30" transform="translate(236,111)"/>
<path d="M0 0 C0.33 0.66 0.66 1.32 1 2 C1.825 2.165 2.65 2.33 3.5 2.5 C4.325 2.665 5.15 2.83 6 3 C6.33 3.66 6.66 4.32 7 5 C4.625 5.625 4.625 5.625 2 6 C1.34 5.34 0.68 4.68 0 4 C0 2.68 0 1.36 0 0 Z " fill="#523C1C" transform="translate(215,92)"/>
<path d="M0 0 C0.99 0.33 1.98 0.66 3 1 C3 1.66 3 2.32 3 3 C3.99 3.33 4.98 3.66 6 4 C5.67 4.66 5.34 5.32 5 6 C3.02 5.34 1.04 4.68 -1 4 C-0.67 2.68 -0.34 1.36 0 0 Z " fill="#2C2413" transform="translate(229,102)"/>
<path d="M0 0 C-0.625 2.375 -0.625 2.375 -2 5 C-5.125 6.3125 -5.125 6.3125 -8 7 C-6.47663111 3.31852519 -4.31953005 0 0 0 Z " fill="#99742E" transform="translate(141,103)"/>
<path d="M0 0 C0.99 0.33 1.98 0.66 3 1 C3.33 2.65 3.66 4.3 4 6 C1.69 5.01 -0.62 4.02 -3 3 C-2.01 2.01 -1.02 1.02 0 0 Z " fill="#715029" transform="translate(211,90)"/>
<path d="M0 0 C0 0.66 0 1.32 0 2 C0.66 2.33 1.32 2.66 2 3 C-0.91482778 3.80967438 -2.46113217 4.21845993 -5.3125 3.0625 C-5.869375 2.711875 -6.42625 2.36125 -7 2 C-2.25 0 -2.25 0 0 0 Z " fill="#704A24" transform="translate(202,86)"/>
<path d="M0 0 C1.41377341 2.63904371 2.37240135 5.07120629 3 8 C2.01 8.495 2.01 8.495 1 9 C1 8.34 1 7.68 1 7 C0.01 7.33 -0.98 7.66 -2 8 C-1.34 5.36 -0.68 2.72 0 0 Z " fill="#574130" transform="translate(111,181)"/>
<path d="M0 0 C0.66 0.33 1.32 0.66 2 1 C2.625 4.0625 2.625 4.0625 3 7 C1.68 7 0.36 7 -1 7 C-0.67 4.69 -0.34 2.38 0 0 Z " fill="#BB8037" transform="translate(164,176)"/>
<path d="M0 0 C0 0.66 0 1.32 0 2 C-2.90548882 4.04169485 -4.40142046 5 -8 5 C-3.375 0 -3.375 0 0 0 Z " fill="#030303" transform="translate(138,96)"/>
<path d="M0 0 C4.8 2.46153846 4.8 2.46153846 5.8125 5.1875 C5.874375 5.785625 5.93625 6.38375 6 7 C5.34 7 4.68 7 4 7 C4 6.34 4 5.68 4 5 C2.68 4.34 1.36 3.68 0 3 C0 2.01 0 1.02 0 0 Z " fill="#070503" transform="translate(124,209)"/>
<path d="M0 0 C0.33 0.66 0.66 1.32 1 2 C-1.64 2.33 -4.28 2.66 -7 3 C-6.67 2.01 -6.34 1.02 -6 0 C-3.42525708 -0.99667468 -2.51072708 -1.25536354 0 0 Z " fill="#A56D28" transform="translate(196,183)"/>
<path d="M0 0 C0.66 0 1.32 0 2 0 C3.4783226 2.95664519 3.06032783 5.74229737 3 9 C0.23776722 6.23776722 0.42143709 3.79293383 0 0 Z " fill="#B3743E" transform="translate(165,153)"/>
<path d="M0 0 C1.32 0 2.64 0 4 0 C4 2.31 4 4.62 4 7 C3.67 5.68 3.34 4.36 3 3 C1.68 2.67 0.36 2.34 -1 2 C-0.67 1.34 -0.34 0.68 0 0 Z " fill="#ECD395" transform="translate(150,122)"/>
<path d="M0 0 C0.99 0.495 0.99 0.495 2 1 C1.01 1.495 1.01 1.495 0 2 C0 1.34 0 0.68 0 0 Z " fill="#000000" transform="translate(120,207)"/>
<path d="M0 0 C0.66 0.66 1.32 1.32 2 2 C1.34 2 0.68 2 0 2 C0 1.34 0 0.68 0 0 Z " fill="#010101" transform="translate(109,116)"/>
<path d="" fill="#010001" transform="translate(0,0)"/>
<path d="M0 0 C2 1 2 1 2 1 Z " fill="#000000" transform="translate(224,86)"/>
<path d="" fill="#010101" transform="translate(0,0)"/>
<path d="" fill="#010102" transform="translate(0,0)"/>
<path d="" fill="#000001" transform="translate(0,0)"/>
<path d="" fill="#010101" transform="translate(0,0)"/>
<path d="" fill="#000000" transform="translate(0,0)"/>
<path d="" fill="#010001" transform="translate(0,0)"/>
<path d="" fill="#000000" transform="translate(0,0)"/>
<path d="" fill="#020102" transform="translate(0,0)"/>
<path d="" fill="#000000" transform="translate(0,0)"/>
<path d="" fill="#000000" transform="translate(0,0)"/>
<path d="" fill="#000000" transform="translate(0,0)"/>
<path d="" fill="#000000" transform="translate(0,0)"/>
<path d="" fill="#000000" transform="translate(0,0)"/>
<path d="" fill="#010101" transform="translate(0,0)"/>
<path d="" fill="#010101" transform="translate(0,0)"/>
<path d="" fill="#010101" transform="translate(0,0)"/>
<path d="" fill="#000001" transform="translate(0,0)"/>
<path d="" fill="#010102" transform="translate(0,0)"/>
<path d="" fill="#000001" transform="translate(0,0)"/>
<path d="" fill="#000001" transform="translate(0,0)"/>
<path d="" fill="#000001" transform="translate(0,0)"/>
<path d="" fill="#000001" transform="translate(0,0)"/>
<path d="" fill="#000001" transform="translate(0,0)"/>
<path d="" fill="#000001" transform="translate(0,0)"/>
</svg>
